<svg height="384pt" viewBox="0 0 384 384" width="384pt" fill="#1E88E5" xmlns="http://www.w3.org/2000/svg"><path d="m192 0c-28.847656 0-57.191406 6.480469-82.785156 18.777344-11.824219-11.914063-27.871094-18.777344-45.214844-18.777344-35.289062 0-64 28.710938-64 64 0 17.359375 6.871094 33.414062 18.769531 45.222656-12.28125 25.59375-18.769531 53.929688-18.769531 82.777344 0 105.871094 86.128906 192 192 192 28.847656 0 57.191406-6.480469 82.785156-18.777344 11.832032 11.914063 27.878906 18.777344 45.214844 18.777344 35.289062 0 64-28.710938 64-64 0-17.359375-6.871094-33.425781-18.769531-45.222656 12.289062-25.59375 18.769531-53.929688 18.769531-82.777344 0-105.871094-86.128906-192-192-192zm-128 32c11.257812 0 21.457031 5.734375 27.289062 15.34375l.046876.082031c3.097656 5.03125 4.664062 10.605469 4.664062 16.574219 0 17.648438-14.351562 32-32 32-5.96875 0-11.542969-1.566406-16.65625-4.710938-9.609375-5.832031-15.34375-16.03125-15.34375-27.289062 0-17.648438 14.359375-32 32-32zm256 320c-11.257812 0-21.457031-5.734375-27.289062-15.34375l-.046876-.082031c-3.089843-5.03125-4.664062-10.605469-4.664062-16.574219 0-17.648438 14.351562-32 32-32 5.96875 0 11.542969 1.566406 16.65625 4.710938 9.617188 5.832031 15.34375 16.03125 15.34375 27.289062 0 17.648438-14.351562 32-32 32zm17.585938-93.535156c-.035157-.007813-.074219-.015625-.105469-.023438-1.945313-.554687-3.9375-.898437-5.929688-1.265625-.902343-.167969-1.78125-.441406-2.695312-.566406-2.917969-.402344-5.878907-.609375-8.855469-.609375-35.289062 0-64 28.710938-64 64 0 2.96875.207031 5.921875.617188 8.839844.136718.976562.421874 1.914062.597656 2.878906.359375 1.929688.6875 3.867188 1.226562 5.746094.007813.039062.015625.078125.023438.128906-20.632813 9.453125-43.335938 14.40625-66.464844 14.40625-88.222656 0-160-71.777344-160-160 0-23.121094 4.953125-45.832031 14.414062-66.464844.035157.007813.074219.015625.105469.023438 1.945313.554687 3.9375.898437 5.929688 1.265625.902343.167969 1.78125.441406 2.695312.566406 2.925781.402344 5.886719.609375 8.855469.609375 35.289062 0 64-28.710938 64-64 0-2.96875-.207031-5.921875-.617188-8.839844-.136718-.976562-.421874-1.914062-.597656-2.878906-.359375-1.929688-.6875-3.867188-1.226562-5.746094-.007813-.039062-.015625-.078125-.023438-.128906 20.632813-9.453125 43.34375-14.40625 66.464844-14.40625 88.222656 0 160 71.777344 160 160 0 23.121094-4.953125 45.832031-14.414062 66.464844zm0 0"/><path d="m192 96c-52.9375 0-96 43.0625-96 96s43.0625 96 96 96 96-43.0625 96-96-43.0625-96-96-96zm0 160c-35.289062 0-64-28.710938-64-64s28.710938-64 64-64 64 28.710938 64 64-28.703125 64-64 64zm0 0"/></svg>